<svg width="29" height="29" viewBox="0 0 29 29" fill="none" xmlns="http://www.w3.org/2000/svg">
<path d="M5.23633 12.3635V21.5272C5.23633 22.0672 5.45087 22.5852 5.83276 22.9671C6.21466 23.349 6.73261 23.5635 7.27269 23.5635H21.5272C22.0673 23.5635 22.5853 23.349 22.9672 22.9671C23.349 22.5852 23.5636 22.0672 23.5636 21.5272V12.3635" stroke="#1B1A1F" stroke-width="1.584"/>
<path d="M17.2849 23.5637V17.4546C17.2849 16.9145 17.0703 16.3965 16.6884 16.0147C16.3065 15.6328 15.7886 15.4182 15.2485 15.4182H13.2121C12.6721 15.4182 12.1541 15.6328 11.7722 16.0147C11.3903 16.3965 11.1758 16.9145 11.1758 17.4546V23.5637" stroke="#1B1A1F" stroke-width="1.584" stroke-miterlimit="16"/>
<path d="M24.3967 11.716L22.6719 5.67924C22.6354 5.55161 22.5583 5.43934 22.4523 5.35942C22.3463 5.27951 22.2172 5.2363 22.0844 5.23633H17.9639L18.4475 11.044C18.4548 11.1374 18.4843 11.2277 18.5335 11.3074C18.5828 11.3871 18.6503 11.4539 18.7306 11.5022C19.1276 11.7395 19.9035 12.1773 20.5093 12.3636C21.5438 12.6823 23.0548 12.5672 23.9162 12.4613C23.9999 12.4505 24.0803 12.4216 24.1517 12.3765C24.2231 12.3314 24.2837 12.2712 24.3295 12.2003C24.3753 12.1293 24.405 12.0492 24.4166 11.9656C24.4282 11.8819 24.4214 11.7968 24.3967 11.716Z" stroke="#1B1A1F" stroke-width="1.584"/>
<path d="M16.4365 12.3636C17.0148 12.1854 17.7479 11.7792 18.1572 11.5368C18.2527 11.48 18.3301 11.3974 18.3805 11.2985C18.4309 11.1996 18.4524 11.0884 18.4423 10.9779L17.9638 5.23633H10.8365L10.358 10.9779C10.3477 11.0886 10.3691 11.2 10.4195 11.2991C10.47 11.3982 10.5475 11.481 10.6431 11.5379C11.0524 11.7792 11.7855 12.1854 12.3638 12.3636C13.8839 12.832 14.9164 12.832 16.4365 12.3636V12.3636Z" stroke="#1B1A1F" stroke-width="1.584"/>
<path d="M6.12849 5.67924L4.40369 11.7171C4.37934 11.7977 4.37283 11.8826 4.38461 11.966C4.39639 12.0494 4.42618 12.1292 4.47191 12.1999C4.51763 12.2707 4.5782 12.3306 4.64941 12.3756C4.72062 12.4205 4.80076 12.4494 4.88427 12.4603C5.74463 12.5672 7.25663 12.6813 8.2911 12.3636C8.89692 12.1773 9.67379 11.7395 10.0699 11.5032C10.1502 11.4548 10.2179 11.3879 10.2671 11.308C10.3163 11.2281 10.3458 11.1376 10.3529 11.044L10.8366 5.23633H6.71598C6.58323 5.2363 6.45408 5.27951 6.34808 5.35942C6.24208 5.43934 6.16499 5.55161 6.12849 5.67924V5.67924Z" stroke="#1B1A1F" stroke-width="1.584"/>
</svg>
