<svg width="29" height="29" viewBox="0 0 29 29" fill="none" xmlns="http://www.w3.org/2000/svg">
<g clip-path="url(#clip0_982_9495)">
<path d="M8.4 22.8C9.72548 22.8 10.8 21.7255 10.8 20.4C10.8 19.0745 9.72548 18 8.4 18C7.07452 18 6 19.0745 6 20.4C6 21.7255 7.07452 22.8 8.4 22.8Z" stroke="#333333" stroke-width="1.44" stroke-linecap="round" stroke-linejoin="round"/>
<path d="M20.4 22.8C21.7255 22.8 22.8 21.7255 22.8 20.4C22.8 19.0745 21.7255 18 20.4 18C19.0745 18 18 19.0745 18 20.4C18 21.7255 19.0745 22.8 20.4 22.8Z" stroke="#333333" stroke-width="1.44" stroke-linecap="round" stroke-linejoin="round"/>
<path d="M5.99941 20.4001H5.03941C4.24412 20.4001 3.59941 19.7554 3.59941 18.9601V15.6001M2.39941 6.00012H14.1594C14.9547 6.00012 15.5994 6.64483 15.5994 7.44012V20.4001M10.7994 20.4001H17.9994M22.7994 20.4001H23.7594C24.5547 20.4001 25.1994 19.7554 25.1994 18.9601V13.2001M25.1994 13.2001H15.5994M25.1994 13.2001L22.0189 7.89925C21.7587 7.46551 21.2899 7.20012 20.7841 7.20012H15.5994" stroke="#333333" stroke-width="1.44" stroke-linecap="round" stroke-linejoin="round"/>
<path d="M5.76016 20.16H4.80016C4.00487 20.16 3.36016 19.5153 3.36016 18.72V15.36M2.16016 5.76001H13.9202C14.7154 5.76001 15.3602 6.40472 15.3602 7.20001V20.16M10.8002 20.16H17.7602M23.0402 20.16H23.5202C24.3154 20.16 24.9602 19.5153 24.9602 18.72V12.96M24.9602 12.96H15.3602M24.9602 12.96L21.7796 7.65914C21.5194 7.2254 21.0507 6.96001 20.5448 6.96001H15.3602" stroke="#333333" stroke-width="1.44" stroke-linecap="round" stroke-linejoin="round"/>
<path d="M3.59961 8.50916H8.39961" stroke="#333333" stroke-width="1.44" stroke-linecap="round" stroke-linejoin="round"/>
<path d="M1.30957 11.1273H6.10957" stroke="#333333" stroke-width="1.44" stroke-linecap="round" stroke-linejoin="round"/>
<path d="M3.59961 13.7455H8.39961" stroke="#333333" stroke-width="1.44" stroke-linecap="round" stroke-linejoin="round"/>
</g>
<defs>
<clipPath id="clip0_982_9495">
<rect width="28.8" height="28.8" fill="white"/>
</clipPath>
</defs>
</svg>
